# xmcd
#
# Track frame offsets: 
#        150
#        26930
#        51187
#        79725
#        106040
#        138860
#        176300
#        199897
#
# Disc length: 3017 seconds
#
# Revision: 2
# Processed by: cddbd v1.5.2PL0 Copyright (c) Steve Scherf et al.
# Submitted via: ExactAudioCopy v0.99pb4
#
DISCID=620bc708
DTITLE=Shepik, Brad - Drip
DYEAR=2003
DGENRE=Jazz
TTITLE0=A Boogie
TTITLE1=Rêve pour Louis
TTITLE2=P.M.
TTITLE3=Trails
TTITLE4=Drip
TTITLE5=Balance
TTITLE6=In the Weeds
TTITLE7=Sugar Cliff
EXTD=YEAR: 2003
EXTT0=
EXTT1=
EXTT2=
EXTT3=
EXTT4=
EXTT5=
EXTT6=
EXTT7=
PLAYORDER=
